<svg id="visual" viewBox="0 0 900 600" width="900" height="600" xmlns="http://www.w3.org/2000/svg" xmlns:xlink="http://www.w3.org/1999/xlink" version="1.1"><rect x="0" y="0" width="900" height="600" fill="#219EBC"></rect><path d="M0 384L129 354L257 374L386 420L514 381L643 427L771 378L900 397L900 601L771 601L643 601L514 601L386 601L257 601L129 601L0 601Z" fill="#fb8500"></path><path d="M0 401L129 476L257 475L386 414L514 467L643 443L771 418L900 395L900 601L771 601L643 601L514 601L386 601L257 601L129 601L0 601Z" fill="#ea485f"></path><path d="M0 483L129 509L257 461L386 474L514 456L643 501L771 479L900 446L900 601L771 601L643 601L514 601L386 601L257 601L129 601L0 601Z" fill="#a14185"></path><path d="M0 514L129 520L257 527L386 529L514 531L643 532L771 488L900 518L900 601L771 601L643 601L514 601L386 601L257 601L129 601L0 601Z" fill="#434279"></path><path d="M0 542L129 541L257 548L386 565L514 529L643 562L771 535L900 545L900 601L771 601L643 601L514 601L386 601L257 601L129 601L0 601Z" fill="#023047"></path></svg>