<svg id="visual" viewBox="0 0 900 600" width="900" height="600" xmlns="http://www.w3.org/2000/svg" xmlns:xlink="http://www.w3.org/1999/xlink" version="1.1"><rect x="0" y="0" width="900" height="600" fill="#219EBC"></rect><path d="M0 132L129 119L257 124L386 149L514 93L643 116L771 136L900 107L900 0L771 0L643 0L514 0L386 0L257 0L129 0L0 0Z" fill="#8ecae6"></path><path d="M0 85L129 114L257 115L386 86L514 119L643 126L771 101L900 87L900 0L771 0L643 0L514 0L386 0L257 0L129 0L0 0Z" fill="#72a8c4"></path><path d="M0 96L129 61L257 74L386 92L514 104L643 80L771 83L900 99L900 0L771 0L643 0L514 0L386 0L257 0L129 0L0 0Z" fill="#5688a3"></path><path d="M0 66L129 55L257 71L386 75L514 76L643 49L771 82L900 58L900 0L771 0L643 0L514 0L386 0L257 0L129 0L0 0Z" fill="#3c6983"></path><path d="M0 54L129 45L257 29L386 42L514 28L643 51L771 30L900 41L900 0L771 0L643 0L514 0L386 0L257 0L129 0L0 0Z" fill="#214b64"></path><path d="M0 19L129 28L257 23L386 31L514 35L643 21L771 28L900 14L900 0L771 0L643 0L514 0L386 0L257 0L129 0L0 0Z" fill="#023047"></path></svg>