<svg id="visual" viewBox="0 0 900 600" width="900" height="600" xmlns="http://www.w3.org/2000/svg" xmlns:xlink="http://www.w3.org/1999/xlink" version="1.1"><g stroke-width="1" stroke-linejoin="bevel"><path d="M446 284L425 215L352.5 274Z" fill="#146f8d" stroke="#146f8d"></path><path d="M425 215L363.5 217L352.5 274Z" fill="#1a86a5" stroke="#1a86a5"></path><path d="M352.5 274L439 389L446 284Z" fill="#1a86a5" stroke="#1a86a5"></path><path d="M439 389L542.5 301L446 284Z" fill="#043a52" stroke="#043a52"></path><path d="M446 284L542.5 301L425 215Z" fill="#219ebc" stroke="#219ebc"></path><path d="M586.5 214L468 123L425 215Z" fill="#0e5975" stroke="#0e5975"></path><path d="M425 215L355.5 102L363.5 217Z" fill="#116481" stroke="#116481"></path><path d="M237 222L248 276L352.5 274Z" fill="#219ebc" stroke="#219ebc"></path><path d="M352.5 274L326.5 400L439 389Z" fill="#1a86a5" stroke="#1a86a5"></path><path d="M237 222L352.5 274L363.5 217Z" fill="#0e5975" stroke="#0e5975"></path><path d="M248 276L326.5 400L352.5 274Z" fill="#116481" stroke="#116481"></path><path d="M468 123L355.5 102L425 215Z" fill="#07445e" stroke="#07445e"></path><path d="M355.5 102L237 222L363.5 217Z" fill="#1a86a5" stroke="#1a86a5"></path><path d="M542.5 301L586.5 214L425 215Z" fill="#043a52" stroke="#043a52"></path><path d="M326.5 400L465 477L439 389Z" fill="#1a86a5" stroke="#1a86a5"></path><path d="M439 389L589.5 396L542.5 301Z" fill="#023047" stroke="#023047"></path><path d="M542.5 301L648 302L586.5 214Z" fill="#146f8d" stroke="#146f8d"></path><path d="M465 477L589.5 396L439 389Z" fill="#07445e" stroke="#07445e"></path><path d="M113.5 285L227 421L248 276Z" fill="#219ebc" stroke="#219ebc"></path><path d="M248 276L227 421L326.5 400Z" fill="#043a52" stroke="#043a52"></path><path d="M326.5 400L313.5 519L465 477Z" fill="#146f8d" stroke="#146f8d"></path><path d="M355.5 102L215 104L237 222Z" fill="#0b4e6a" stroke="#0b4e6a"></path><path d="M237 222L134.5 218L248 276Z" fill="#0b4e6a" stroke="#0b4e6a"></path><path d="M589.5 396L648 302L542.5 301Z" fill="#023047" stroke="#023047"></path><path d="M586.5 214L572.5 77L468 123Z" fill="#116481" stroke="#116481"></path><path d="M468 123L438 0L355.5 102Z" fill="#023047" stroke="#023047"></path><path d="M355.5 102L316.5 0L215 104Z" fill="#1d92b0" stroke="#1d92b0"></path><path d="M664 93L572.5 77L586.5 214Z" fill="#1a86a5" stroke="#1a86a5"></path><path d="M648 302L656 206L586.5 214Z" fill="#07445e" stroke="#07445e"></path><path d="M572.5 77L438 0L468 123Z" fill="#0e5975" stroke="#0e5975"></path><path d="M215 104L134.5 218L237 222Z" fill="#219ebc" stroke="#219ebc"></path><path d="M438 0L316.5 0L355.5 102Z" fill="#0b4e6a" stroke="#0b4e6a"></path><path d="M227 421L313.5 519L326.5 400Z" fill="#0e5975" stroke="#0e5975"></path><path d="M546.5 600L583.5 474L465 477Z" fill="#219ebc" stroke="#219ebc"></path><path d="M465 477L583.5 474L589.5 396Z" fill="#023047" stroke="#023047"></path><path d="M589.5 396L666 400L648 302Z" fill="#116481" stroke="#116481"></path><path d="M134.5 218L113.5 285L248 276Z" fill="#219ebc" stroke="#219ebc"></path><path d="M583.5 474L666 400L589.5 396Z" fill="#0b4e6a" stroke="#0b4e6a"></path><path d="M648 302L761.5 316L656 206Z" fill="#1a86a5" stroke="#1a86a5"></path><path d="M316.5 0L238 0L215 104Z" fill="#177b99" stroke="#177b99"></path><path d="M215 104L128.5 84L134.5 218Z" fill="#043a52" stroke="#043a52"></path><path d="M762.5 120L664 93L656 206Z" fill="#1d92b0" stroke="#1d92b0"></path><path d="M656 206L664 93L586.5 214Z" fill="#043a52" stroke="#043a52"></path><path d="M572.5 77L588.5 0L438 0Z" fill="#023047" stroke="#023047"></path><path d="M664 93L588.5 0L572.5 77Z" fill="#219ebc" stroke="#219ebc"></path><path d="M227 421L205 516L313.5 519Z" fill="#219ebc" stroke="#219ebc"></path><path d="M110.5 481L205 516L227 421Z" fill="#1d92b0" stroke="#1d92b0"></path><path d="M132.5 0L128.5 84L215 104Z" fill="#1a86a5" stroke="#1a86a5"></path><path d="M134.5 218L0 211L113.5 285Z" fill="#177b99" stroke="#177b99"></path><path d="M113.5 285L105.5 424L227 421Z" fill="#043a52" stroke="#043a52"></path><path d="M313.5 519L447 600L465 477Z" fill="#146f8d" stroke="#146f8d"></path><path d="M583.5 474L699 485L666 400Z" fill="#219ebc" stroke="#219ebc"></path><path d="M341.5 600L447 600L313.5 519Z" fill="#043a52" stroke="#043a52"></path><path d="M212 600L341.5 600L313.5 519Z" fill="#0b4e6a" stroke="#0b4e6a"></path><path d="M779.5 390L761.5 316L666 400Z" fill="#177b99" stroke="#177b99"></path><path d="M666 400L761.5 316L648 302Z" fill="#146f8d" stroke="#146f8d"></path><path d="M105.5 424L110.5 481L227 421Z" fill="#023047" stroke="#023047"></path><path d="M205 516L212 600L313.5 519Z" fill="#043a52" stroke="#043a52"></path><path d="M447 600L546.5 600L465 477Z" fill="#1a86a5" stroke="#1a86a5"></path><path d="M680 600L699 485L583.5 474Z" fill="#1d92b0" stroke="#1d92b0"></path><path d="M238 0L132.5 0L215 104Z" fill="#07445e" stroke="#07445e"></path><path d="M0 99L0 211L134.5 218Z" fill="#023047" stroke="#023047"></path><path d="M768.5 0L680 0L664 93Z" fill="#116481" stroke="#116481"></path><path d="M664 93L680 0L588.5 0Z" fill="#177b99" stroke="#177b99"></path><path d="M761.5 316L782.5 215L656 206Z" fill="#07445e" stroke="#07445e"></path><path d="M782.5 215L762.5 120L656 206Z" fill="#1d92b0" stroke="#1d92b0"></path><path d="M113.5 600L212 600L205 516Z" fill="#023047" stroke="#023047"></path><path d="M699 485L779.5 390L666 400Z" fill="#219ebc" stroke="#219ebc"></path><path d="M761.5 316L900 306L782.5 215Z" fill="#0b4e6a" stroke="#0b4e6a"></path><path d="M0 99L134.5 218L128.5 84Z" fill="#043a52" stroke="#043a52"></path><path d="M113.5 285L0 378L105.5 424Z" fill="#1d92b0" stroke="#1d92b0"></path><path d="M105.5 424L0 494L110.5 481Z" fill="#0e5975" stroke="#0e5975"></path><path d="M0 211L0 322L113.5 285Z" fill="#1a86a5" stroke="#1a86a5"></path><path d="M0 322L0 378L113.5 285Z" fill="#0e5975" stroke="#0e5975"></path><path d="M110.5 481L113.5 600L205 516Z" fill="#219ebc" stroke="#219ebc"></path><path d="M0 0L0 99L128.5 84Z" fill="#116481" stroke="#116481"></path><path d="M680 600L773.5 486L699 485Z" fill="#146f8d" stroke="#146f8d"></path><path d="M699 485L773.5 486L779.5 390Z" fill="#043a52" stroke="#043a52"></path><path d="M546.5 600L680 600L583.5 474Z" fill="#116481" stroke="#116481"></path><path d="M0 494L113.5 600L110.5 481Z" fill="#219ebc" stroke="#219ebc"></path><path d="M900 74L768.5 0L762.5 120Z" fill="#1a86a5" stroke="#1a86a5"></path><path d="M762.5 120L768.5 0L664 93Z" fill="#146f8d" stroke="#146f8d"></path><path d="M0 378L0 494L105.5 424Z" fill="#023047" stroke="#023047"></path><path d="M132.5 0L0 0L128.5 84Z" fill="#177b99" stroke="#177b99"></path><path d="M900 398L900 306L779.5 390Z" fill="#07445e" stroke="#07445e"></path><path d="M779.5 390L900 306L761.5 316Z" fill="#043a52" stroke="#043a52"></path><path d="M782.5 215L900 179L762.5 120Z" fill="#177b99" stroke="#177b99"></path><path d="M900 306L900 179L782.5 215Z" fill="#043a52" stroke="#043a52"></path><path d="M900 475L900 398L779.5 390Z" fill="#0b4e6a" stroke="#0b4e6a"></path><path d="M900 475L779.5 390L773.5 486Z" fill="#177b99" stroke="#177b99"></path><path d="M680 600L793.5 600L773.5 486Z" fill="#1a86a5" stroke="#1a86a5"></path><path d="M0 494L0 600L113.5 600Z" fill="#177b99" stroke="#177b99"></path><path d="M900 179L900 74L762.5 120Z" fill="#1a86a5" stroke="#1a86a5"></path><path d="M793.5 600L900 475L773.5 486Z" fill="#07445e" stroke="#07445e"></path><path d="M900 74L900 0L768.5 0Z" fill="#0b4e6a" stroke="#0b4e6a"></path><path d="M793.5 600L900 600L900 475Z" fill="#1a86a5" stroke="#1a86a5"></path></g></svg>