<svg id="visual" viewBox="0 0 900 600" width="900" height="600" xmlns="http://www.w3.org/2000/svg" xmlns:xlink="http://www.w3.org/1999/xlink" version="1.1"><g stroke-width="1" stroke-linejoin="bevel"><path d="M496 297L480 235L395 315Z" fill="#f35153" stroke="#f35153"></path><path d="M480 235L410 188L395 315Z" fill="#fd6936" stroke="#fd6936"></path><path d="M395 315L500 371L496 297Z" fill="#324071" stroke="#324071"></path><path d="M410 188L327 260L395 315Z" fill="#7b4386" stroke="#7b4386"></path><path d="M410 188L316 237L327 260Z" fill="#7b4386" stroke="#7b4386"></path><path d="M604 235L464 120L480 235Z" fill="#c33f7b" stroke="#c33f7b"></path><path d="M480 235L464 120L410 188Z" fill="#a14185" stroke="#a14185"></path><path d="M410 188L372 103L316 237Z" fill="#fb8500" stroke="#fb8500"></path><path d="M279 392L379 434L395 315Z" fill="#f35153" stroke="#f35153"></path><path d="M395 315L379 434L500 371Z" fill="#7b4386" stroke="#7b4386"></path><path d="M279 392L395 315L327 260Z" fill="#13395d" stroke="#13395d"></path><path d="M620 327L604 235L496 297Z" fill="#fb8500" stroke="#fb8500"></path><path d="M496 297L604 235L480 235Z" fill="#f35153" stroke="#f35153"></path><path d="M500 371L620 327L496 297Z" fill="#023047" stroke="#023047"></path><path d="M598 384L620 327L500 371Z" fill="#023047" stroke="#023047"></path><path d="M464 120L372 103L410 188Z" fill="#13395d" stroke="#13395d"></path><path d="M598 495L598 384L500 371Z" fill="#023047" stroke="#023047"></path><path d="M238 384L279 392L327 260Z" fill="#df436a" stroke="#df436a"></path><path d="M372 103L318 97L316 237Z" fill="#a14185" stroke="#a14185"></path><path d="M171 304L238 384L327 260Z" fill="#13395d" stroke="#13395d"></path><path d="M200 233L327 260L316 237Z" fill="#55437f" stroke="#55437f"></path><path d="M290 522L433 513L379 434Z" fill="#fd6936" stroke="#fd6936"></path><path d="M703 276L669 230L620 327Z" fill="#a14185" stroke="#a14185"></path><path d="M620 327L669 230L604 235Z" fill="#a14185" stroke="#a14185"></path><path d="M604 235L585 66L464 120Z" fill="#023047" stroke="#023047"></path><path d="M290 522L379 434L279 392Z" fill="#7b4386" stroke="#7b4386"></path><path d="M379 434L472 512L500 371Z" fill="#c33f7b" stroke="#c33f7b"></path><path d="M433 513L472 512L379 434Z" fill="#023047" stroke="#023047"></path><path d="M318 97L200 233L316 237Z" fill="#55437f" stroke="#55437f"></path><path d="M660 492L669 371L598 384Z" fill="#7b4386" stroke="#7b4386"></path><path d="M598 384L669 371L620 327Z" fill="#023047" stroke="#023047"></path><path d="M696 121L585 66L604 235Z" fill="#55437f" stroke="#55437f"></path><path d="M464 120L411 0L372 103Z" fill="#fb8500" stroke="#fb8500"></path><path d="M372 103L329 0L318 97Z" fill="#55437f" stroke="#55437f"></path><path d="M669 371L703 276L620 327Z" fill="#7b4386" stroke="#7b4386"></path><path d="M669 230L696 121L604 235Z" fill="#023047" stroke="#023047"></path><path d="M472 512L598 495L500 371Z" fill="#13395d" stroke="#13395d"></path><path d="M200 233L171 304L327 260Z" fill="#55437f" stroke="#55437f"></path><path d="M519 0L411 0L464 120Z" fill="#7b4386" stroke="#7b4386"></path><path d="M176 497L290 522L238 384Z" fill="#7b4386" stroke="#7b4386"></path><path d="M238 384L290 522L279 392Z" fill="#fd6936" stroke="#fd6936"></path><path d="M433 513L383 600L472 512Z" fill="#c33f7b" stroke="#c33f7b"></path><path d="M585 66L519 0L464 120Z" fill="#fd6936" stroke="#fd6936"></path><path d="M411 0L329 0L372 103Z" fill="#f35153" stroke="#f35153"></path><path d="M136 108L139 228L200 233Z" fill="#7b4386" stroke="#7b4386"></path><path d="M796 181L696 121L669 230Z" fill="#55437f" stroke="#55437f"></path><path d="M585 66L611 0L519 0Z" fill="#13395d" stroke="#13395d"></path><path d="M193 90L200 233L318 97Z" fill="#c33f7b" stroke="#c33f7b"></path><path d="M200 233L139 228L171 304Z" fill="#f35153" stroke="#f35153"></path><path d="M621 600L660 492L598 495Z" fill="#a14185" stroke="#a14185"></path><path d="M598 495L660 492L598 384Z" fill="#df436a" stroke="#df436a"></path><path d="M669 371L777 298L703 276Z" fill="#324071" stroke="#324071"></path><path d="M329 0L193 90L318 97Z" fill="#a14185" stroke="#a14185"></path><path d="M687 0L611 0L585 66Z" fill="#55437f" stroke="#55437f"></path><path d="M290 522L383 600L433 513Z" fill="#324071" stroke="#324071"></path><path d="M472 512L531 600L598 495Z" fill="#f35153" stroke="#f35153"></path><path d="M383 600L531 600L472 512Z" fill="#13395d" stroke="#13395d"></path><path d="M821 410L777 298L669 371Z" fill="#55437f" stroke="#55437f"></path><path d="M703 276L796 181L669 230Z" fill="#324071" stroke="#324071"></path><path d="M290 522L294 600L383 600Z" fill="#fb8500" stroke="#fb8500"></path><path d="M128 432L176 497L238 384Z" fill="#023047" stroke="#023047"></path><path d="M128 432L238 384L171 304Z" fill="#df436a" stroke="#df436a"></path><path d="M73 299L128 432L171 304Z" fill="#a14185" stroke="#a14185"></path><path d="M193 90L136 108L200 233Z" fill="#fb8500" stroke="#fb8500"></path><path d="M139 228L73 299L171 304Z" fill="#f35153" stroke="#f35153"></path><path d="M165 0L136 108L193 90Z" fill="#fd6936" stroke="#fd6936"></path><path d="M172 600L294 600L290 522Z" fill="#c33f7b" stroke="#c33f7b"></path><path d="M0 307L73 299L0 223Z" fill="#df436a" stroke="#df436a"></path><path d="M777 298L796 181L703 276Z" fill="#7b4386" stroke="#7b4386"></path><path d="M696 121L687 0L585 66Z" fill="#55437f" stroke="#55437f"></path><path d="M531 600L621 600L598 495Z" fill="#fb8500" stroke="#fb8500"></path><path d="M660 492L821 410L669 371Z" fill="#023047" stroke="#023047"></path><path d="M778 60L687 0L696 121Z" fill="#fd6936" stroke="#fd6936"></path><path d="M329 0L165 0L193 90Z" fill="#324071" stroke="#324071"></path><path d="M0 223L73 299L139 228Z" fill="#a14185" stroke="#a14185"></path><path d="M0 371L103 480L128 432Z" fill="#fb8500" stroke="#fb8500"></path><path d="M128 432L103 480L176 497Z" fill="#c33f7b" stroke="#c33f7b"></path><path d="M176 497L172 600L290 522Z" fill="#13395d" stroke="#13395d"></path><path d="M796 181L778 60L696 121Z" fill="#13395d" stroke="#13395d"></path><path d="M781 530L821 410L660 492Z" fill="#a14185" stroke="#a14185"></path><path d="M777 298L900 230L796 181Z" fill="#a14185" stroke="#a14185"></path><path d="M119 600L172 600L176 497Z" fill="#7b4386" stroke="#7b4386"></path><path d="M731 600L781 530L660 492Z" fill="#c33f7b" stroke="#c33f7b"></path><path d="M621 600L731 600L660 492Z" fill="#fd6936" stroke="#fd6936"></path><path d="M900 0L777 0L778 60Z" fill="#f35153" stroke="#f35153"></path><path d="M778 60L777 0L687 0Z" fill="#023047" stroke="#023047"></path><path d="M900 124L778 60L796 181Z" fill="#a14185" stroke="#a14185"></path><path d="M73 299L0 371L128 432Z" fill="#fd6936" stroke="#fd6936"></path><path d="M103 480L119 600L176 497Z" fill="#13395d" stroke="#13395d"></path><path d="M0 223L139 228L136 108Z" fill="#c33f7b" stroke="#c33f7b"></path><path d="M0 115L0 223L136 108Z" fill="#13395d" stroke="#13395d"></path><path d="M165 0L92 0L136 108Z" fill="#f35153" stroke="#f35153"></path><path d="M0 307L0 371L73 299Z" fill="#fd6936" stroke="#fd6936"></path><path d="M0 600L119 600L103 480Z" fill="#df436a" stroke="#df436a"></path><path d="M900 378L900 300L821 410Z" fill="#c33f7b" stroke="#c33f7b"></path><path d="M821 410L900 300L777 298Z" fill="#324071" stroke="#324071"></path><path d="M900 300L900 230L777 298Z" fill="#c33f7b" stroke="#c33f7b"></path><path d="M92 0L0 115L136 108Z" fill="#7b4386" stroke="#7b4386"></path><path d="M900 487L900 378L821 410Z" fill="#a14185" stroke="#a14185"></path><path d="M900 487L821 410L781 530Z" fill="#fd6936" stroke="#fd6936"></path><path d="M900 230L900 124L796 181Z" fill="#324071" stroke="#324071"></path><path d="M0 371L0 492L103 480Z" fill="#df436a" stroke="#df436a"></path><path d="M731 600L828 600L781 530Z" fill="#fd6936" stroke="#fd6936"></path><path d="M828 600L900 487L781 530Z" fill="#fd6936" stroke="#fd6936"></path><path d="M92 0L0 0L0 115Z" fill="#55437f" stroke="#55437f"></path><path d="M900 124L900 0L778 60Z" fill="#324071" stroke="#324071"></path><path d="M0 492L0 600L103 480Z" fill="#df436a" stroke="#df436a"></path><path d="M828 600L900 600L900 487Z" fill="#023047" stroke="#023047"></path></g></svg>