<svg id="visual" viewBox="0 0 900 600" width="900" height="600" xmlns="http://www.w3.org/2000/svg" xmlns:xlink="http://www.w3.org/1999/xlink" version="1.1"><path d="M0 55L53 49L106 49L159 49L212 37L265 25L318 55L371 31L424 49L476 31L529 55L582 25L635 37L688 61L741 37L794 31L847 31L900 55L900 0L847 0L794 0L741 0L688 0L635 0L582 0L529 0L476 0L424 0L371 0L318 0L265 0L212 0L159 0L106 0L53 0L0 0Z" fill="#fb8500"></path><path d="M0 79L53 91L106 67L159 73L212 61L265 67L318 79L371 73L424 67L476 73L529 79L582 61L635 61L688 91L741 55L794 73L847 49L900 97L900 53L847 29L794 29L741 35L688 59L635 35L582 23L529 53L476 29L424 47L371 29L318 53L265 23L212 35L159 47L106 47L53 47L0 53Z" fill="#fd6936"></path><path d="M0 115L53 139L106 103L159 121L212 109L265 115L318 103L371 91L424 103L476 121L529 103L582 97L635 109L688 133L741 85L794 97L847 85L900 115L900 95L847 47L794 71L741 53L688 89L635 59L582 59L529 77L476 71L424 65L371 71L318 77L265 65L212 59L159 71L106 65L53 89L0 77Z" fill="#f35153"></path><path d="M0 157L53 187L106 181L159 163L212 169L265 181L318 175L371 133L424 187L476 181L529 145L582 163L635 181L688 205L741 151L794 163L847 127L900 181L900 113L847 83L794 95L741 83L688 131L635 107L582 95L529 101L476 119L424 101L371 89L318 101L265 113L212 107L159 119L106 101L53 137L0 113Z" fill="#df436a"></path><path d="M0 193L53 205L106 205L159 193L212 205L265 211L318 205L371 169L424 205L476 199L529 175L582 199L635 199L688 229L741 181L794 193L847 145L900 223L900 179L847 125L794 161L741 149L688 203L635 179L582 161L529 143L476 179L424 185L371 131L318 173L265 179L212 167L159 161L106 179L53 185L0 155Z" fill="#c33f7b"></path><path d="M0 211L53 241L106 223L159 229L212 229L265 235L318 229L371 205L424 223L476 223L529 199L582 229L635 217L688 247L741 199L794 211L847 163L900 241L900 221L847 143L794 191L741 179L688 227L635 197L582 197L529 173L476 197L424 203L371 167L318 203L265 209L212 203L159 191L106 203L53 203L0 191Z" fill="#a14185"></path><path d="M0 247L53 271L106 259L159 247L212 253L265 271L318 253L371 229L424 247L476 259L529 223L582 265L635 241L688 271L741 235L794 247L847 199L900 271L900 239L847 161L794 209L741 197L688 245L635 215L582 227L529 197L476 221L424 221L371 203L318 227L265 233L212 227L159 227L106 221L53 239L0 209Z" fill="#7b4386"></path><path d="M0 271L53 313L106 283L159 295L212 301L265 319L318 307L371 277L424 283L476 283L529 259L582 313L635 265L688 307L741 259L794 301L847 247L900 301L900 269L847 197L794 245L741 233L688 269L635 239L582 263L529 221L476 257L424 245L371 227L318 251L265 269L212 251L159 245L106 257L53 269L0 245Z" fill="#55437f"></path><path d="M0 355L53 397L106 355L159 337L212 349L265 397L318 367L371 355L424 361L476 379L529 355L582 355L635 337L688 391L741 343L794 385L847 361L900 397L900 299L847 245L794 299L741 257L688 305L635 263L582 311L529 257L476 281L424 281L371 275L318 305L265 317L212 299L159 293L106 281L53 311L0 269Z" fill="#324071"></path><path d="M0 481L53 505L106 469L159 457L212 433L265 511L318 517L371 499L424 517L476 523L529 499L582 505L635 469L688 505L741 511L794 463L847 457L900 493L900 395L847 359L794 383L741 341L688 389L635 335L582 353L529 353L476 377L424 359L371 353L318 365L265 395L212 347L159 335L106 353L53 395L0 353Z" fill="#13395d"></path><path d="M0 601L53 601L106 601L159 601L212 601L265 601L318 601L371 601L424 601L476 601L529 601L582 601L635 601L688 601L741 601L794 601L847 601L900 601L900 491L847 455L794 461L741 509L688 503L635 467L582 503L529 497L476 521L424 515L371 497L318 515L265 509L212 431L159 455L106 467L53 503L0 479Z" fill="#023047"></path></svg>