<svg id="visual" viewBox="0 0 900 600" width="900" height="600" xmlns="http://www.w3.org/2000/svg" xmlns:xlink="http://www.w3.org/1999/xlink" version="1.1"><path d="M629 600L621.5 590C614 580 599 560 594.5 540C590 520 596 500 615.5 480C635 460 668 440 672.5 420C677 400 653 380 647 360C641 340 653 320 641 300C629 280 593 260 575 240C557 220 557 200 584 180C611 160 665 140 675.5 120C686 100 653 80 641 60C629 40 638 20 642.5 10L647 0L900 0L900 10C900 20 900 40 900 60C900 80 900 100 900 120C900 140 900 160 900 180C900 200 900 220 900 240C900 260 900 280 900 300C900 320 900 340 900 360C900 380 900 400 900 420C900 440 900 460 900 480C900 500 900 520 900 540C900 560 900 580 900 590L900 600Z" fill="#187489"></path><path d="M413 600L405.5 590C398 580 383 560 386 540C389 520 410 500 437 480C464 460 497 440 497 420C497 400 464 380 468.5 360C473 340 515 320 516.5 300C518 280 479 260 461 240C443 220 446 200 456.5 180C467 160 485 140 492.5 120C500 100 497 80 495.5 60C494 40 494 20 494 10L494 0L648 0L643.5 10C639 20 630 40 642 60C654 80 687 100 676.5 120C666 140 612 160 585 180C558 200 558 220 576 240C594 260 630 280 642 300C654 320 642 340 648 360C654 380 678 400 673.5 420C669 440 636 460 616.5 480C597 500 591 520 595.5 540C600 560 615 580 622.5 590L630 600Z" fill="#3aa4c0"></path><path d="M323 600L317 590C311 580 299 560 305 540C311 520 335 500 353 480C371 460 383 440 380 420C377 400 359 380 369.5 360C380 340 419 320 417.5 300C416 280 374 260 356 240C338 220 344 200 357.5 180C371 160 392 140 398 120C404 100 395 80 393.5 60C392 40 398 20 401 10L404 0L495 0L495 10C495 20 495 40 496.5 60C498 80 501 100 493.5 120C486 140 468 160 457.5 180C447 200 444 220 462 240C480 260 519 280 517.5 300C516 320 474 340 469.5 360C465 380 498 400 498 420C498 440 465 460 438 480C411 500 390 520 387 540C384 560 399 580 406.5 590L414 600Z" fill="#6ab8ce"></path><path d="M215 600L210.5 590C206 580 197 560 194 540C191 520 194 500 210.5 480C227 460 257 440 254 420C251 400 215 380 216.5 360C218 340 257 320 267.5 300C278 280 260 260 245 240C230 220 218 200 228.5 180C239 160 272 140 287 120C302 100 299 80 291.5 60C284 40 272 20 266 10L260 0L405 0L402 10C399 20 393 40 394.5 60C396 80 405 100 399 120C393 140 372 160 358.5 180C345 200 339 220 357 240C375 260 417 280 418.5 300C420 320 381 340 370.5 360C360 380 378 400 381 420C384 440 372 460 354 480C336 500 312 520 306 540C300 560 312 580 318 590L324 600Z" fill="#3aa4c0"></path><path d="M0 600L0 590C0 580 0 560 0 540C0 520 0 500 0 480C0 460 0 440 0 420C0 400 0 380 0 360C0 340 0 320 0 300C0 280 0 260 0 240C0 220 0 200 0 180C0 160 0 140 0 120C0 100 0 80 0 60C0 40 0 20 0 10L0 0L261 0L267 10C273 20 285 40 292.5 60C300 80 303 100 288 120C273 140 240 160 229.5 180C219 200 231 220 246 240C261 260 279 280 268.5 300C258 320 219 340 217.5 360C216 380 252 400 255 420C258 440 228 460 211.5 480C195 500 192 520 195 540C198 560 207 580 211.5 590L216 600Z" fill="#187489"></path></svg>