<svg id="visual" viewBox="0 0 900 600" width="900" height="600" xmlns="http://www.w3.org/2000/svg" xmlns:xlink="http://www.w3.org/1999/xlink" version="1.1"><rect x="0" y="0" width="900" height="600" fill="#FB8500"></rect><path d="M0 258L129 258L129 288L257 288L257 257L386 257L386 282L514 282L514 304L643 304L643 301L771 301L771 275L900 275L900 247L900 0L900 0L771 0L771 0L643 0L643 0L514 0L514 0L386 0L386 0L257 0L257 0L129 0L129 0L0 0Z" fill="#219ebc"></path><path d="M0 162L129 162L129 178L257 178L257 157L386 157L386 179L514 179L514 143L643 143L643 190L771 190L771 172L900 172L900 147L900 0L900 0L771 0L771 0L643 0L643 0L514 0L514 0L386 0L386 0L257 0L257 0L129 0L129 0L0 0Z" fill="#116481"></path><path d="M0 100L129 100L129 93L257 93L257 100L386 100L386 120L514 120L514 85L643 85L643 115L771 115L771 82L900 82L900 116L900 0L900 0L771 0L771 0L643 0L643 0L514 0L514 0L386 0L386 0L257 0L257 0L129 0L129 0L0 0Z" fill="#023047"></path></svg>