<svg id="visual" viewBox="0 0 900 600" width="900" height="600" xmlns="http://www.w3.org/2000/svg" xmlns:xlink="http://www.w3.org/1999/xlink" version="1.1"><rect x="0" y="0" width="900" height="600" fill="#219EBC"></rect><path d="M0 255L18.8 264.7C37.7 274.3 75.3 293.7 112.8 312.3C150.3 331 187.7 349 225.2 355.2C262.7 361.3 300.3 355.7 337.8 345.3C375.3 335 412.7 320 450.2 310.5C487.7 301 525.3 297 562.8 298.5C600.3 300 637.7 307 675.2 314.8C712.7 322.7 750.3 331.3 787.8 338.7C825.3 346 862.7 352 881.3 355L900 358L900 601L881.3 601C862.7 601 825.3 601 787.8 601C750.3 601 712.7 601 675.2 601C637.7 601 600.3 601 562.8 601C525.3 601 487.7 601 450.2 601C412.7 601 375.3 601 337.8 601C300.3 601 262.7 601 225.2 601C187.7 601 150.3 601 112.8 601C75.3 601 37.7 601 18.8 601L0 601Z" fill="#219ebc"></path><path d="M0 392L18.8 381.8C37.7 371.7 75.3 351.3 112.8 342.3C150.3 333.3 187.7 335.7 225.2 340.7C262.7 345.7 300.3 353.3 337.8 357.5C375.3 361.7 412.7 362.3 450.2 370C487.7 377.7 525.3 392.3 562.8 388.2C600.3 384 637.7 361 675.2 357.2C712.7 353.3 750.3 368.7 787.8 378.3C825.3 388 862.7 392 881.3 394L900 396L900 601L881.3 601C862.7 601 825.3 601 787.8 601C750.3 601 712.7 601 675.2 601C637.7 601 600.3 601 562.8 601C525.3 601 487.7 601 450.2 601C412.7 601 375.3 601 337.8 601C300.3 601 262.7 601 225.2 601C187.7 601 150.3 601 112.8 601C75.3 601 37.7 601 18.8 601L0 601Z" fill="#40a7c4"></path><path d="M0 422L18.8 411.8C37.7 401.7 75.3 381.3 112.8 385.5C150.3 389.7 187.7 418.3 225.2 429.7C262.7 441 300.3 435 337.8 433.2C375.3 431.3 412.7 433.7 450.2 432.8C487.7 432 525.3 428 562.8 419.3C600.3 410.7 637.7 397.3 675.2 398.5C712.7 399.7 750.3 415.3 787.8 418.5C825.3 421.7 862.7 412.3 881.3 407.7L900 403L900 601L881.3 601C862.7 601 825.3 601 787.8 601C750.3 601 712.7 601 675.2 601C637.7 601 600.3 601 562.8 601C525.3 601 487.7 601 450.2 601C412.7 601 375.3 601 337.8 601C300.3 601 262.7 601 225.2 601C187.7 601 150.3 601 112.8 601C75.3 601 37.7 601 18.8 601L0 601Z" fill="#57b0cd"></path><path d="M0 404L18.8 417.2C37.7 430.3 75.3 456.7 112.8 458.3C150.3 460 187.7 437 225.2 425C262.7 413 300.3 412 337.8 410.3C375.3 408.7 412.7 406.3 450.2 417.2C487.7 428 525.3 452 562.8 453.2C600.3 454.3 637.7 432.7 675.2 428.7C712.7 424.7 750.3 438.3 787.8 449.8C825.3 461.3 862.7 470.7 881.3 475.3L900 480L900 601L881.3 601C862.7 601 825.3 601 787.8 601C750.3 601 712.7 601 675.2 601C637.7 601 600.3 601 562.8 601C525.3 601 487.7 601 450.2 601C412.7 601 375.3 601 337.8 601C300.3 601 262.7 601 225.2 601C187.7 601 150.3 601 112.8 601C75.3 601 37.7 601 18.8 601L0 601Z" fill="#6bb8d5"></path><path d="M0 483L18.8 483.5C37.7 484 75.3 485 112.8 492.3C150.3 499.7 187.7 513.3 225.2 515.5C262.7 517.7 300.3 508.3 337.8 499.3C375.3 490.3 412.7 481.7 450.2 483.7C487.7 485.7 525.3 498.3 562.8 505.2C600.3 512 637.7 513 675.2 507.3C712.7 501.7 750.3 489.3 787.8 489.3C825.3 489.3 862.7 501.7 881.3 507.8L900 514L900 601L881.3 601C862.7 601 825.3 601 787.8 601C750.3 601 712.7 601 675.2 601C637.7 601 600.3 601 562.8 601C525.3 601 487.7 601 450.2 601C412.7 601 375.3 601 337.8 601C300.3 601 262.7 601 225.2 601C187.7 601 150.3 601 112.8 601C75.3 601 37.7 601 18.8 601L0 601Z" fill="#7dc1de"></path><path d="M0 524L18.8 523.5C37.7 523 75.3 522 112.8 520.5C150.3 519 187.7 517 225.2 519.3C262.7 521.7 300.3 528.3 337.8 532.5C375.3 536.7 412.7 538.3 450.2 538.5C487.7 538.7 525.3 537.3 562.8 533.8C600.3 530.3 637.7 524.7 675.2 522.3C712.7 520 750.3 521 787.8 529C825.3 537 862.7 552 881.3 559.5L900 567L900 601L881.3 601C862.7 601 825.3 601 787.8 601C750.3 601 712.7 601 675.2 601C637.7 601 600.3 601 562.8 601C525.3 601 487.7 601 450.2 601C412.7 601 375.3 601 337.8 601C300.3 601 262.7 601 225.2 601C187.7 601 150.3 601 112.8 601C75.3 601 37.7 601 18.8 601L0 601Z" fill="#8ecae6"></path></svg>