<svg id="visual" viewBox="0 0 900 600" width="900" height="600" xmlns="http://www.w3.org/2000/svg" xmlns:xlink="http://www.w3.org/1999/xlink" version="1.1"><rect x="0" y="0" width="900" height="600" fill="#023047"></rect><path d="M0 553L300 553L300 553L600 553L600 553L900 553L900 553L900 0L900 0L600 0L600 0L300 0L300 0L0 0Z" fill="#062534"></path><path d="M0 507L300 507L300 507L600 507L600 507L900 507L900 507L900 0L900 0L600 0L600 0L300 0L300 0L0 0Z" fill="#042a3c"></path><path d="M0 461L300 461L300 461L600 461L600 461L900 461L900 461L900 0L900 0L600 0L600 0L300 0L300 0L0 0Z" fill="#022f45"></path><path d="M0 414L300 414L300 414L600 414L600 414L900 414L900 414L900 0L900 0L600 0L600 0L300 0L300 0L0 0Z" fill="#063f5a"></path><path d="M0 368L300 368L300 368L600 368L600 368L900 368L900 368L900 0L900 0L600 0L600 0L300 0L300 0L0 0Z" fill="#0f5274"></path><path d="M0 322L300 322L300 322L600 322L600 322L900 322L900 322L900 0L900 0L600 0L600 0L300 0L300 0L0 0Z" fill="#125a7e"></path><path d="M0 276L300 276L300 276L600 276L600 276L900 276L900 276L900 0L900 0L600 0L600 0L300 0L300 0L0 0Z" fill="#125a7e"></path><path d="M0 230L300 230L300 230L600 230L600 230L900 230L900 230L900 0L900 0L600 0L600 0L300 0L300 0L0 0Z" fill="#0f5274"></path><path d="M0 184L300 184L300 184L600 184L600 184L900 184L900 184L900 0L900 0L600 0L600 0L300 0L300 0L0 0Z" fill="#063f5a"></path><path d="M0 137L300 137L300 137L600 137L600 137L900 137L900 137L900 0L900 0L600 0L600 0L300 0L300 0L0 0Z" fill="#022f45"></path><path d="M0 91L300 91L300 91L600 91L600 91L900 91L900 91L900 0L900 0L600 0L600 0L300 0L300 0L0 0Z" fill="#042a3c"></path><path d="M0 45L300 45L300 45L600 45L600 45L900 45L900 45L900 0L900 0L600 0L600 0L300 0L300 0L0 0Z" fill="#062534"></path></svg>