<svg id="visual" viewBox="0 0 900 600" width="900" height="600" xmlns="http://www.w3.org/2000/svg" xmlns:xlink="http://www.w3.org/1999/xlink" version="1.1"><rect x="0" y="0" width="900" height="600" fill="#219EBC"></rect><path d="M0 176L129 227L257 186L386 236L514 204L643 184L771 204L900 194L900 0L771 0L643 0L514 0L386 0L257 0L129 0L0 0Z" fill="#8ecae6"></path><path d="M0 139L129 188L257 168L386 156L514 185L643 120L771 119L900 175L900 0L771 0L643 0L514 0L386 0L257 0L129 0L0 0Z" fill="#6ba0bc"></path><path d="M0 94L129 89L257 131L386 108L514 99L643 87L771 144L900 94L900 0L771 0L643 0L514 0L386 0L257 0L129 0L0 0Z" fill="#497893"></path><path d="M0 96L129 111L257 72L386 78L514 91L643 78L771 96L900 111L900 0L771 0L643 0L514 0L386 0L257 0L129 0L0 0Z" fill="#28536c"></path><path d="M0 29L129 49L257 32L386 34L514 73L643 55L771 34L900 72L900 0L771 0L643 0L514 0L386 0L257 0L129 0L0 0Z" fill="#023047"></path></svg>